<?xml version="1.0" encoding="UTF-8" standalone="no"?>
<svg
   xmlns:osb="http://www.openswatchbook.org/uri/2009/osb"
   xmlns:dc="http://purl.org/dc/elements/1.1/"
   xmlns:cc="http://creativecommons.org/ns#"
   xmlns:rdf="http://www.w3.org/1999/02/22-rdf-syntax-ns#"
   xmlns:svg="http://www.w3.org/2000/svg"
   xmlns="http://www.w3.org/2000/svg"
   xmlns:sodipodi="http://sodipodi.sourceforge.net/DTD/sodipodi-0.dtd"
   xmlns:inkscape="http://www.inkscape.org/namespaces/inkscape"
   version="1.1"
   id="svg2"
   viewBox="0 0 3182.3713 709.66853"
   height="20.028423cm"
   width="89.813591cm"
   inkscape:version="0.91 r13725"
   sodipodi:docname="LogoUIBCDF_vectorizado.svg">
  <sodipodi:namedview
     pagecolor="#ffffff"
     bordercolor="#666666"
     borderopacity="1"
     objecttolerance="10"
     gridtolerance="10"
     guidetolerance="10"
     inkscape:pageopacity="0"
     inkscape:pageshadow="2"
     inkscape:window-width="1920"
     inkscape:window-height="1056"
     id="namedview40"
     showgrid="false"
     fit-margin-top="0"
     fit-margin-left="0"
     fit-margin-right="0"
     fit-margin-bottom="0"
     inkscape:zoom="0.27751852"
     inkscape:cx="1097.8257"
     inkscape:cy="211.13926"
     inkscape:window-x="1920"
     inkscape:window-y="24"
     inkscape:window-maximized="1"
     inkscape:current-layer="layer1" />
  <defs
     id="defs4">
    <linearGradient
       osb:paint="solid"
       id="linearGradient5816">
      <stop
         id="stop5818"
         offset="0"
         style="stop-color:#0066cd;stop-opacity:1;" />
    </linearGradient>
    <linearGradient
       osb:paint="solid"
       id="linearGradient5810">
      <stop
         id="stop5812"
         offset="0"
         style="stop-color:#0066cd;stop-opacity:1;" />
    </linearGradient>
    <linearGradient
       osb:paint="solid"
       id="linearGradient5800-2">
      <stop
         style="stop-color:#004082;stop-opacity:0;"
         offset="0"
         id="stop5808" />
    </linearGradient>
    <linearGradient
       id="linearGradient5800">
      <stop
         id="stop5802"
         offset="0"
         style="stop-color:#004082;stop-opacity:0;" />
    </linearGradient>
    <linearGradient
       osb:paint="solid"
       id="azul-8">
      <stop
         id="stop5796"
         offset="0"
         style="stop-color:#004082;stop-opacity:0;" />
    </linearGradient>
    <linearGradient
       osb:paint="solid"
       id="linearGradient5788">
      <stop
         id="stop5790"
         offset="0"
         style="stop-color:#0066cd;stop-opacity:0;" />
    </linearGradient>
  </defs>
  <metadata
     id="metadata7">
    <rdf:RDF>
      <cc:Work
         rdf:about="">
        <dc:format>image/svg+xml</dc:format>
        <dc:type
           rdf:resource="http://purl.org/dc/dcmitype/StillImage" />
        <dc:title></dc:title>
      </cc:Work>
    </rdf:RDF>
  </metadata>
  <g
     transform="translate(356.13522,-272.77069)"
     id="layer1">
    <rect
       y="272.77069"
       x="-356.13522"
       height="709.66852"
       width="708.69769"
       id="rect3336"
       style="fill:none;fill-rule:evenodd;stroke:none;stroke-width:1.02755904;stroke-linecap:butt;stroke-linejoin:miter;stroke-miterlimit:4;stroke-dasharray:none;stroke-opacity:1" />
    <circle
       r="52.525475"
       cy="910.63"
       cx="-286.26773"
       id="path4164"
       style="fill:#004082;fill-opacity:1;fill-rule:nonzero;stroke:none;stroke-width:1.24826133;stroke-linejoin:miter;stroke-miterlimit:4;stroke-dasharray:none;stroke-opacity:1" />
    <circle
       r="52.525475"
       cy="768.89771"
       cx="-286.26773"
       id="path4164-6"
       style="fill:#004082;fill-opacity:1;stroke:none;stroke-width:1.24826133;stroke-linejoin:miter;stroke-miterlimit:4;stroke-dasharray:none;stroke-opacity:1" />
    <circle
       r="52.525475"
       cy="910.63"
       cx="-144.53543"
       id="path4164-62"
       style="fill:#004082;fill-opacity:1;stroke:none;stroke-width:1.24826133;stroke-linejoin:miter;stroke-miterlimit:4;stroke-dasharray:none;stroke-opacity:1" />
    <circle
       r="52.525475"
       cy="768.89771"
       cx="-144.53543"
       id="path4164-6-9"
       style="fill:#ffcc00;fill-opacity:1;stroke:none;stroke-width:1.24826133;stroke-linejoin:miter;stroke-miterlimit:4;stroke-dasharray:none;stroke-opacity:1" />
    <circle
       r="52.525475"
       cy="910.63"
       cx="-2.8031616"
       id="path4164-0"
       style="fill:#004082;fill-opacity:1;stroke:none;stroke-width:1.24826133;stroke-linejoin:miter;stroke-miterlimit:4;stroke-dasharray:none;stroke-opacity:1" />
    <circle
       r="52.525475"
       cy="768.89771"
       cx="-2.8031616"
       id="path4164-6-93"
       style="fill:#ce5027;fill-opacity:1;stroke:#f07844;stroke-width:1.24826133;stroke-linejoin:miter;stroke-miterlimit:4;stroke-dasharray:none;stroke-opacity:1" />
    <circle
       r="52.525475"
       cy="627.16541"
       cx="-2.8031616"
       id="path4164-6-7-6"
       style="fill:#ffcc00;fill-opacity:1;stroke:none;stroke-width:1.24826133;stroke-linejoin:miter;stroke-miterlimit:4;stroke-dasharray:none;stroke-opacity:1" />
    <circle
       r="52.525475"
       cy="485.43314"
       cx="-2.8031616"
       id="path4164-6-7-5-3-0"
       style="fill:#ce5027;fill-opacity:1;stroke:#f07844;stroke-width:1.24826133;stroke-linejoin:miter;stroke-miterlimit:4;stroke-dasharray:none;stroke-opacity:1" />
    <circle
       r="52.525475"
       cy="910.63"
       cx="138.92914"
       id="path4164-2"
       style="fill:#004082;fill-opacity:1;stroke:none;stroke-width:1.24826133;stroke-linejoin:miter;stroke-miterlimit:4;stroke-dasharray:none;stroke-opacity:1" />
    <circle
       r="52.525475"
       cy="768.89771"
       cx="138.92914"
       id="path4164-6-6"
       style="fill:#004082;fill-opacity:1;stroke:none;stroke-width:1.24826133;stroke-linejoin:miter;stroke-miterlimit:4;stroke-dasharray:none;stroke-opacity:1" />
    <circle
       r="52.525475"
       cy="627.16541"
       cx="138.92914"
       id="path4164-6-7-18"
       style="fill:#004082;fill-opacity:1;stroke:none;stroke-width:1.24826133;stroke-linejoin:miter;stroke-miterlimit:4;stroke-dasharray:none;stroke-opacity:1" />
    <circle
       r="52.525475"
       cy="485.43314"
       cx="138.92914"
       id="path4164-6-7-5-3-7"
       style="fill:#ffcc00;fill-opacity:1;stroke:none;stroke-width:1.24826133;stroke-linejoin:miter;stroke-miterlimit:4;stroke-dasharray:none;stroke-opacity:1" />
    <circle
       r="52.525475"
       cy="910.63"
       cx="280.66144"
       id="path4164-20"
       style="fill:#004082;fill-opacity:1;stroke:none;stroke-width:1.24826133;stroke-linejoin:miter;stroke-miterlimit:4;stroke-dasharray:none;stroke-opacity:1" />
    <circle
       r="52.525475"
       cy="768.89771"
       cx="280.66144"
       id="path4164-6-2"
       style="fill:#004082;fill-opacity:1;stroke:none;stroke-width:1.24826133;stroke-linejoin:miter;stroke-miterlimit:4;stroke-dasharray:none;stroke-opacity:1" />
    <circle
       r="52.525475"
       cy="627.16541"
       cx="280.66144"
       id="path4164-6-7-3"
       style="fill:#004082;fill-opacity:1;stroke:none;stroke-width:1.24826133;stroke-linejoin:miter;stroke-miterlimit:4;stroke-dasharray:none;stroke-opacity:1" />
    <circle
       r="52.525475"
       cy="485.43317"
       cx="280.66144"
       id="path4164-6-7-5-3-75"
       style="fill:#004082;fill-opacity:1;stroke:none;stroke-width:1.24826133;stroke-linejoin:miter;stroke-miterlimit:4;stroke-dasharray:none;stroke-opacity:1" />
    <circle
       r="52.525475"
       cy="343.7009"
       cx="280.66144"
       id="path4164-6-7-5-5-92"
       style="fill:#004082;fill-opacity:1;stroke:none;stroke-width:1.24826133;stroke-linejoin:miter;stroke-miterlimit:4;stroke-dasharray:none;stroke-opacity:1" />
    <path
       inkscape:connector-curvature="0"
       id="path4169"
       style="font-style:normal;font-variant:normal;font-weight:800;font-stretch:normal;font-size:275px;line-height:125%;font-family:Lato;-inkscape-font-specification:'Lato Ultra-Bold';letter-spacing:0px;word-spacing:0px;fill:#004082;fill-opacity:1;stroke:none;stroke-width:1px;stroke-linecap:butt;stroke-linejoin:miter;stroke-opacity:1"
       d="m 606.22107,844.38251 q 24.57093,0 44.09309,-10.86873 19.52216,-11.3216 32.98572,-31.70047 13.46356,-20.37888 20.53193,-49.36216 7.06837,-28.98329 7.06837,-65.2124 l 0,-391.27438 100.97671,0 0,391.27438 q 0,59.77803 -14.47333,110.04592 -14.13674,49.81502 -40.72727,86.04413 -26.59053,36.22911 -64.62509,56.60799 -38.03456,20.37887 -85.83013,20.37887 -47.79567,0 -86.16682,-20.37887 -38.03456,-20.37888 -64.62506,-56.60799 -26.59056,-36.22911 -41.06387,-86.04413 -14.13676,-50.26789 -14.13676,-110.04592 l 0,-391.27438 100.97671,0 0,391.27438 q 0,36.22911 7.06837,65.2124 7.06839,28.98328 20.53195,49.36216 13.46356,20.37887 32.9857,31.70047 19.52217,10.86873 44.42978,10.86873 z" />
    <path
       inkscape:connector-curvature="0"
       id="path4171"
       style="font-style:normal;font-variant:normal;font-weight:800;font-stretch:normal;font-size:275px;line-height:125%;font-family:Lato;-inkscape-font-specification:'Lato Ultra-Bold';letter-spacing:0px;word-spacing:0px;fill:#004082;fill-opacity:1;stroke:none;stroke-width:1px;stroke-linecap:butt;stroke-linejoin:miter;stroke-opacity:1"
       d="m 1010.191,953.06984 -101.6499,0 0,-657.10547 101.6499,0 0,657.10547 z" />
    <path
       inkscape:connector-curvature="0"
       id="path4173"
       style="font-style:normal;font-variant:normal;font-weight:800;font-stretch:normal;font-size:275px;line-height:125%;font-family:Lato;-inkscape-font-specification:'Lato Ultra-Bold';letter-spacing:0px;word-spacing:0px;fill:#004082;fill-opacity:1;stroke:none;stroke-width:1px;stroke-linecap:butt;stroke-linejoin:miter;stroke-opacity:1"
       d="m 1112.3354,953.06984 0,-657.10547 173.3433,0 q 49.142,0 83.8107,12.68019 35.0052,12.22732 56.8835,35.32338 22.2149,22.64319 32.3126,55.24939 10.0976,32.6062 10.0976,72.91108 0,22.64319 -5.0488,43.47493 -4.7122,20.83174 -15.1465,39.39916 -10.0977,18.11455 -26.254,33.05906 -16.1562,14.94451 -38.3711,25.36038 97.6108,30.79474 97.6108,144.46357 0,41.66348 -12.1172,77.43972 -11.7806,35.77625 -34.6687,62.04235 -22.888,26.26611 -56.5469,41.21061 -33.3223,14.49165 -76.7423,14.49165 l -189.163,0 z m 100.9767,-283.94565 0,179.78696 86.5033,0 q 24.2345,0 39.7175,-7.69869 15.8197,-8.15155 25.2442,-21.2846 9.4245,-13.13305 13.127,-29.88901 3.7025,-17.20883 3.7025,-35.32339 0,-19.92601 -4.3757,-35.77624 -4.3756,-15.85024 -14.1367,-26.71897 -9.7611,-11.3216 -25.5808,-17.20883 -15.4831,-5.88723 -38.3711,-5.88723 l -85.8302,0 z m 0,-92.38423 66.308,0 q 21.2051,0 37.698,-4.52863 16.4928,-4.98151 27.6003,-15.39738 11.1074,-10.41586 16.8294,-27.17183 6.0586,-17.20882 6.0586,-41.21061 0,-24.45465 -5.0488,-41.66348 -4.7123,-17.20882 -14.8099,-27.62469 -10.0977,-10.41587 -25.5808,-14.94451 -15.4831,-4.9815 -36.6882,-4.9815 l -72.3666,0 0,177.52263 z" />
    <path
       inkscape:connector-curvature="0"
       id="path4175"
       style="font-style:normal;font-variant:normal;font-weight:800;font-stretch:normal;font-size:275px;line-height:125%;font-family:Lato;-inkscape-font-specification:'Lato Ultra-Bold';letter-spacing:0px;word-spacing:0px;fill:#004082;fill-opacity:1;stroke:none;stroke-width:1px;stroke-linecap:butt;stroke-linejoin:miter;stroke-opacity:1"
       d="m 1891.9174,791.39744 q 8.4147,0 14.1367,8.15155 l 40.0541,57.51371 q -29.6198,50.72075 -73.713,76.98686 -43.7565,26.2661 -104.3426,26.2661 -54.864,0 -98.6205,-24.90751 -43.7566,-25.36038 -74.3862,-70.1939 -30.6296,-44.83352 -47.1225,-106.42301 -16.4928,-61.58949 -16.4928,-134.50057 0,-48.9093 7.7415,-92.83709 8.0781,-44.38066 23.2246,-81.5155 15.1465,-37.13484 36.3517,-67.02385 21.5417,-29.88902 48.4688,-50.72075 26.9271,-21.28461 58.5665,-32.15334 31.9759,-11.32159 67.991,-11.32159 26.9271,0 50.8249,6.34009 24.2344,6.34009 45.1029,17.66169 20.8685,11.3216 38.3712,27.6247 17.8392,15.85023 31.9759,34.87051 l -33.9955,62.49522 q -3.0293,5.88723 -7.7415,10.41587 -4.7123,4.52864 -12.7904,4.52864 -8.0781,0 -16.4929,-7.69869 -8.0781,-7.69869 -20.1953,-17.20883 -11.7806,-9.51014 -29.9564,-17.20882 -17.8392,-7.69869 -45.4395,-7.69869 -30.6296,0 -56.2104,14.94451 -25.5808,14.9445 -44.0932,43.47493 -18.1758,28.07756 -28.2734,69.28817 -10.0977,41.21061 -10.0977,93.74282 0,52.98507 10.7708,94.64855 11.1075,41.21061 29.9565,69.74103 19.1855,28.53043 44.4297,43.47494 25.5808,14.49164 54.5274,14.49164 17.1661,0 30.9662,-2.26432 14.1368,-2.26432 25.9174,-7.69869 12.1172,-5.43436 22.5514,-14.03878 10.7709,-8.60441 21.5417,-21.73746 3.7025,-4.07578 7.7416,-6.79296 4.0391,-2.71718 8.7513,-2.71718 z" />
    <path
       inkscape:connector-curvature="0"
       id="path4177"
       style="font-style:normal;font-variant:normal;font-weight:800;font-stretch:normal;font-size:275px;line-height:125%;font-family:Lato;-inkscape-font-specification:'Lato Ultra-Bold';letter-spacing:0px;word-spacing:0px;fill:#004082;fill-opacity:1;stroke:none;stroke-width:1px;stroke-linecap:butt;stroke-linejoin:miter;stroke-opacity:1"
       d="m 2440.3578,624.29067 q 0,72.00536 -18.1758,132.68911 -17.8393,60.2309 -50.825,103.70583 -32.6491,43.47493 -78.7618,67.92958 -46.1127,24.45465 -102.3231,24.45465 l -187.8167,0 0,-657.10547 187.8167,0 q 56.2104,0 102.3231,24.45465 46.1127,24.45464 78.7618,68.38244 32.9857,43.47493 50.825,103.70583 18.1758,60.23089 18.1758,131.78338 z m -103.6695,0 q 0,-51.62648 -10.0976,-92.83709 -10.0977,-41.21061 -28.9467,-69.74104 -18.849,-28.53042 -46.1127,-43.92779 -26.9271,-15.39737 -61.2592,-15.39737 l -86.1668,0 0,444.25945 86.1668,0 q 34.3321,0 61.2592,-14.94451 27.2637,-15.39737 46.1127,-43.92779 18.849,-28.98329 28.9467,-70.1939 10.0976,-41.21061 10.0976,-93.28996 z" />
    <path
       inkscape:connector-curvature="0"
       id="path4179"
       style="font-style:normal;font-variant:normal;font-weight:800;font-stretch:normal;font-size:275px;line-height:125%;font-family:Lato;-inkscape-font-specification:'Lato Ultra-Bold';letter-spacing:0px;word-spacing:0px;fill:#004082;fill-opacity:1;stroke:none;stroke-width:1px;stroke-linecap:butt;stroke-linejoin:miter;stroke-opacity:1"
       d="m 2826.2362,295.96437 0,106.42301 -209.3584,0 0,181.59841 175.6995,0 0,106.87587 -175.6995,0 0,262.20818 -101.6499,0 0,-657.10547 311.0083,0 z" />
  </g>
</svg>
